<svg xmlns="http://www.w3.org/2000/svg" width="24" height="24" viewBox="0 0 6.3499999 6.35">
  <path d="M.94038736.70340222c-.1465792 0-.2645833.11801-.2645833.26459v4.39559c0 .14658.1180041.26459.2645833.26459h.018087v-4.3894c0-.14658.11800393-.26458.26458333-.26458h4.4364217v-.006c0-.14658-.1180044-.26459-.2645833-.26459z"/>
  <path d="M.52816775.32619222c-.1465792 0-.2645834.11801-.2645834.26459v4.39559c0 .14658.1180042.26459.2645834.26459h.018087v-4.3894c0-.14658.1180039-.26458.2645833-.26458h4.43642164v-.006c0-.14658-.1180044-.26459-.2645833-.26459z"/>
  <path stroke="" stroke-width=".25185075" d="M1.46360999 1.21519222c-.139677 0-.2521247.1122-.2521248.25158v4.17952c0 .13938.1124478.25159.2521248.25159h4.2447557c.139677 0 .2521244-.11221.2521244-.25159v-4.17952c0-.13938-.1124474-.25158-.2521244-.25158h-4.2447557zm.4550063.77243h1.127667l.2560641.93014.2900421.94538.3289438-1.03725.2388292-.83827h1.0931968l-1.1995619 3.13783h-.9597483l-1.1754328-3.13783z"/>
</svg>
