<?xml version="1.0" encoding="UTF-8" standalone="no"?>
<svg
   xmlns:dc="http://purl.org/dc/elements/1.1/"
   xmlns:cc="http://creativecommons.org/ns#"
   xmlns:rdf="http://www.w3.org/1999/02/22-rdf-syntax-ns#"
   xmlns:svg="http://www.w3.org/2000/svg"
   xmlns="http://www.w3.org/2000/svg"
   xmlns:sodipodi="http://sodipodi.sourceforge.net/DTD/sodipodi-0.dtd"
   xmlns:inkscape="http://www.inkscape.org/namespaces/inkscape"
   version="1.1"
   width="24"
   height="24"
   viewBox="0 0 24 24"
   id="svg2"
   inkscape:version="0.91 r13725"
   sodipodi:docname="calendar-blank.svg">
  <metadata
     id="metadata10">
    <rdf:RDF>
      <cc:Work
         rdf:about="">
        <dc:format>image/svg+xml</dc:format>
        <dc:type
           rdf:resource="http://purl.org/dc/dcmitype/StillImage" />
      </cc:Work>
    </rdf:RDF>
  </metadata>
  <defs
     id="defs8" />
  <sodipodi:namedview
     pagecolor="#ffffff"
     bordercolor="#666666"
     borderopacity="1"
     objecttolerance="10"
     gridtolerance="10"
     guidetolerance="10"
     inkscape:pageopacity="0"
     inkscape:pageshadow="2"
     inkscape:window-width="1920"
     inkscape:window-height="1017"
     id="namedview6"
     showgrid="false"
     inkscape:zoom="9.8333333"
     inkscape:cx="12"
     inkscape:cy="12"
     inkscape:window-x="-8"
     inkscape:window-y="-8"
     inkscape:window-maximized="1"
     inkscape:current-layer="svg2" />
  <path
     d="M19,19H5V8H19M16,1V3H8V1H6V3H5C3.89,3 3,3.89 3,5V19A2,2 0 0,0 5,21H19A2,2 0 0,0 21,19V5C21,3.89 20.1,3 19,3H18V1"
     id="path4" />
  <path
     id="path4151"
     d="M 13.128187,10.950848 12,12.079034 l -1.128186,-1.128186 -0.614187,0.614186 1.128187,1.128186 -1.128187,1.128187 0.614187,0.614186 L 12,13.307407 l 1.128187,1.128186 0.614186,-0.614186 -1.128186,-1.128187 1.128186,-1.128186 -0.614186,-0.614186 m 1.049779,-1.30678 a 0.87118644,0.87118644 0 0 1 0.871187,0.871186 l 0,4.355933 a 0.87118644,0.87118644 0 0 1 -0.871187,0.871186 l -1.742373,0 0,0.871186 0.435594,0 a 0.43559322,0.43559322 0 0 1 0.435593,0.435594 l 3.049152,0 0,0.871186 -3.049152,0 a 0.43559322,0.43559322 0 0 1 -0.435593,0.435593 l -1.742373,0 a 0.43559322,0.43559322 0 0 1 -0.435593,-0.435593 l -3.0491528,0 0,-0.871186 3.0491528,0 a 0.43559322,0.43559322 0 0 1 0.435593,-0.435594 l 0.435593,0 0,-0.871186 -1.7423727,0 c -0.4835081,0 -0.871186,-0.392034 -0.871186,-0.871186 l 0,-4.355933 a 0.87118644,0.87118644 0 0 1 0.871186,-0.871186 l 4.3559317,0 z"
     inkscape:connector-curvature="0" />
</svg>
