<svg width="26" height="26" viewBox="0 0 26 26" xmlns="http://www.w3.org/2000/svg"><title>3BB7BFA0-1213-420D-9138-8524013E824E</title><path d="M16 15h1.5v2.82l2.44 1.41-.75 1.3L16 18.69V15zm4-5H6v11h4.67c-.43-.91-.67-1.93-.67-3a7 7 0 0 1 7-7c1.07 0 2.09.24 3 .67V10zM6 23a2 2 0 0 1-2-2V7c0-1.11.89-2 2-2h1V3h2v2h8V3h2v2h1a2 2 0 0 1 2 2v6.1c1.24 1.26 2 2.99 2 4.9a7 7 0 0 1-7 7c-1.91 0-3.64-.76-4.9-2H6zm11-9.85a4.85 4.85 0 1 0 0 9.7 4.85 4.85 0 0 0 0-9.7z" fill="#1c1c1b" fill-rule="evenodd"/></svg>
