<svg width="114" height="53" viewBox="0 0 114 53" xmlns="http://www.w3.org/2000/svg"><title>7822597A-E987-498B-ACCB-C0043BB739AA</title><g fill-rule="nonzero" fill="none"><path d="M30.297 10.309c.025-.567-.196-1.08-.693-1.51a1.928 1.928 0 0 0-1.304-.464 1.974 1.974 0 0 0-1.978 1.967 1.973 1.973 0 0 0 1.986 1.964c.56-.006 1.039-.188 1.416-.565.374-.372.607-.837.573-1.392" fill="#005DB4"/><path d="M31.583 10.046c0-.042.001-.088-.01-.128-.062-.217-.112-.438-.193-.648a4.363 4.363 0 0 0-.302-.631 2.065 2.065 0 0 0-.32-.406c-.15-.151-.317-.286-.481-.421a1.708 1.708 0 0 0-.585-.343c-.175-.055-.341-.138-.516-.19-.142-.044-.292-.061-.437-.093-.01-.002.016.006.009-.009h-.816c-.016.017-.065.015-.08.015-.222.002-.428.073-.63.149-.178.067-.363.124-.526.219-.31.18-.59.405-.83.67-.126.14-.257.283-.346.446-.148.27-.314.535-.366.848-.034.208-.092.413-.115.622-.019.184-.004.372-.003.558a.64.64 0 0 0 .017.14c.035.148.07.295.114.44.051.168.102.337.171.499.068.16.158.312.241.467.088.165.175.33.269.493.09.156.186.308.283.46.174.273.343.548.526.815.133.197.276.39.431.57.309.358.625.71.945 1.058.15.163.406.165.559.006.235-.245.461-.497.688-.749.177-.198.356-.394.52-.603.153-.192.286-.4.428-.6.064-.093.131-.184.192-.28a12.605 12.605 0 0 0 .486-.817c.079-.152.15-.307.224-.462.065-.137.135-.274.189-.416.056-.15.1-.306.14-.462.048-.183.103-.368.12-.555.021-.219.006-.441.004-.662zM6.444 12.287h8.194c3.802 0 6.547.546 8.241 1.64 1.692 1.093 2.539 2.82 2.539 5.18 0 1.59-.416 2.913-1.247 3.97-.83 1.056-2.027 1.72-3.586 1.993v.186c1.938.36 3.362 1.075 4.275 2.134.911 1.061 1.37 2.501 1.37 4.316 0 2.445-.866 4.363-2.597 5.748-1.73 1.385-4.138 2.078-7.221 2.078H6.444V12.287zm4.512 11.254h4.342c1.889 0 3.266-.293 4.134-.885.87-.589 1.304-1.594 1.304-3.008 0-1.281-.47-2.204-1.406-2.778-.94-.57-2.427-.857-4.465-.857h-3.909v7.528zm0 3.618v8.627h4.795c1.889 0 3.314-.357 4.276-1.072.963-.713 1.444-1.84 1.444-3.383 0-1.415-.49-2.464-1.473-3.148-.98-.682-2.472-1.024-4.474-1.024h-4.568z" fill="#005DB4"/><path d="M48.927 12.476L43.67 33.789h-.112l-4.036-21.313h-6.256V39.27h4.029s.043-17.078-.167-20.402l3.869 20.402h5.418l4.149-20.86-.13 20.86h4.27V12.476h-5.776zM92.45 20.576c0 2.799-.927 4.942-2.784 6.433-1.857 1.49-2.865 1.764-6.427 2.236h-1.32V39.27h-3.937V12.476h5.315c3.39 0 4.931.684 6.62 2.052 1.69 1.369 2.534 3.385 2.534 6.048zm-10.53 4.985h.856c2.277 0 3.448-.39 4.512-1.173 1.064-.782 1.596-2.003 1.596-3.666 0-1.54-.477-2.688-1.429-3.445-.953-.758-1.938-1.137-3.956-1.137h-1.58v9.421zM109.52 31.994c0 2.384-.888 4.232-2.617 5.609-1.608 1.279-2.372 1.667-5.72 2.033-3.05.334-5.583-.47-7.538-1.41v-3.649a20.787 20.787 0 0 0 3.946 1.357c1.392.329 2.7.657 3.89.494 1.613-.22 2.19-.472 3.026-1.132.834-.658 1.615-1.897 1.615-3.01 0-1-.047-1.604-.638-2.451-.707-1.016-1.364-1.616-3.765-2.57-2.476-.99-4.22-2.12-5.235-3.39-1.014-1.271-1.522-2.798-1.522-4.582 0-2.236.804-3.995 2.413-5.279 1.61-1.282 3.269-1.924 5.98-1.924 2.188 0 2.914.33 3.521.749l-.743 3.141s-.702-.452-3.238-.456c-1.436-.002-2.677.632-3.42 1.248-.743.618-1.114 1.433-1.114 2.448 0 .696.148 1.292.446 1.787.297.494.786.962 1.467 1.401.68.44.905 1.022 2.676 1.742 1.993.817 2.953 1.58 3.881 2.291.929.708 1.609 1.509 2.042 2.4.43.892.648 1.944.648 3.153M74.4 39.326l-6.154-26.905H64.42l-6.153 26.905h3.678l1.359-6.116 1.934-9.142.61-2.942c.725-3.163.234-2.74.913-.311l1.078 5.095v.001l.465 2.199h-.018l1.394 6.85 1.004 4.366H74.4z" fill="#3E3E3D"/><path fill="#FFF" d="M67.84 25.91v.001z"/></g></svg>