<?xml version="1.0" encoding="UTF-8" standalone="no"?>
<!-- Created with Inkscape (http://www.inkscape.org/) -->

<svg
   xmlns:dc="http://purl.org/dc/elements/1.1/"
   xmlns:cc="http://creativecommons.org/ns#"
   xmlns:rdf="http://www.w3.org/1999/02/22-rdf-syntax-ns#"
   xmlns:svg="http://www.w3.org/2000/svg"
   xmlns="http://www.w3.org/2000/svg"
   xmlns:sodipodi="http://sodipodi.sourceforge.net/DTD/sodipodi-0.dtd"
   xmlns:inkscape="http://www.inkscape.org/namespaces/inkscape"
   width="24"
   height="24"
   viewBox="0 0 6.3499999 6.3500002"
   version="1.1"
   id="svg8"
   inkscape:version="0.92.3 (2405546, 2018-03-11)"
   sodipodi:docname="actionOpen.svg">
  <defs
     id="defs2" />
  <sodipodi:namedview
     id="base"
     pagecolor="#ffffff"
     bordercolor="#666666"
     borderopacity="1.0"
     inkscape:pageopacity="0.0"
     inkscape:pageshadow="2"
     inkscape:zoom="22.627417"
     inkscape:cx="15.22942"
     inkscape:cy="7.5345708"
     inkscape:document-units="mm"
     inkscape:current-layer="layer1"
     showgrid="false"
     units="px"
     inkscape:window-width="1920"
     inkscape:window-height="1001"
     inkscape:window-x="-9"
     inkscape:window-y="-9"
     inkscape:window-maximized="1" />
  <metadata
     id="metadata5">
    <rdf:RDF>
      <cc:Work
         rdf:about="">
        <dc:format>image/svg+xml</dc:format>
        <dc:type
           rdf:resource="http://purl.org/dc/dcmitype/StillImage" />
        <dc:title></dc:title>
      </cc:Work>
    </rdf:RDF>
  </metadata>
  <g
     inkscape:label="Layer 1"
     inkscape:groupmode="layer"
     id="layer1"
     transform="translate(0,-290.64998)">
    <path
       id="path815"
       d="m 5.7158459,294.08989 -0.33655,1.85208 H 0.97054593 l -0.33655,-1.85208 z m -5.65159765,-2.91042 0.23636323,0.003 -0.0217761,0.008 -0.0103353,0.0216 -0.004134,0.0264 v 1.73667 0.0269 l 0.0113688,0.022 0.0198925,0.007 h 0.0289388 0.40307618 l 0.037207,-0.004 0.0193849,-0.009 0.008269,-0.02 0.001034,-0.0258 v -1.26371 H 1.609506 c 0.36513,0.4265 0.6818401,0.79375 1.3007001,0.79375 H 5.556036 v 0.45633 l 0.00103,0.0341 0.010335,0.0274 0.028157,0.007 0.03514,0.004 h 0.4185791 l 0.00517,-0.002 0.020422,-0.005 0.010334,-0.0181 v -0.0258 -0.93638 l -0.00413,-0.0331 -0.012402,-0.0202 -0.024556,-0.0122 -0.056844,-0.005 c -1.6095395,0.0521 -3.1943468,0.29186 -4.1354077,-0.79375 0.7229895,-4.9e-4 -1.52903097,-2.1e-4 -1.78761805,-2.1e-4 z m 6.27106825,2.38952 -0.023519,-0.005 -0.032039,-0.003 H 0.06825112 l -0.0361735,-10e-4 -0.01988935,0.009 -0.0046036,0.0227 0.00243915,0.0253 0.50821751,2.79518 0.009153,0.025 0.016031,0.0205 0.0188525,0.009 0.0320394,0.004 H 5.7216528 l 0.05271,-0.005 0.034884,-0.0145 0.016146,-0.0289 0.01046,-0.0353 0.5024025,-2.76258 0.00416,-0.0316 z"
       inkscape:connector-curvature="0"
       style="stroke-width:0.26458332"
       sodipodi:nodetypes="ccccccccccccccccccccccscccccccccccccccccccccccccccccccccccccccc" />
  </g>
</svg>
