<?xml version="1.0" encoding="UTF-8" standalone="no"?>
<!-- Created with Inkscape (http://www.inkscape.org/) -->

<svg
   xmlns:dc="http://purl.org/dc/elements/1.1/"
   xmlns:cc="http://creativecommons.org/ns#"
   xmlns:rdf="http://www.w3.org/1999/02/22-rdf-syntax-ns#"
   xmlns:svg="http://www.w3.org/2000/svg"
   xmlns="http://www.w3.org/2000/svg"
   xmlns:sodipodi="http://sodipodi.sourceforge.net/DTD/sodipodi-0.dtd"
   xmlns:inkscape="http://www.inkscape.org/namespaces/inkscape"
   width="24"
   height="24"
   viewBox="0 0 6.3499999 6.3500002"
   version="1.1"
   id="svg8"
   inkscape:version="0.92.3 (2405546, 2018-03-11)"
   sodipodi:docname="actionDelete.svg">
  <defs
     id="defs2" />
  <sodipodi:namedview
     id="base"
     pagecolor="#ffffff"
     bordercolor="#666666"
     borderopacity="1.0"
     inkscape:pageopacity="0.0"
     inkscape:pageshadow="2"
     inkscape:zoom="22.627417"
     inkscape:cx="-7.3576091"
     inkscape:cy="11.141188"
     inkscape:document-units="mm"
     inkscape:current-layer="layer1"
     showgrid="false"
     inkscape:window-width="1920"
     inkscape:window-height="1001"
     inkscape:window-x="-9"
     inkscape:window-y="-9"
     inkscape:window-maximized="1"
     units="px" />
  <metadata
     id="metadata5">
    <rdf:RDF>
      <cc:Work
         rdf:about="">
        <dc:format>image/svg+xml</dc:format>
        <dc:type
           rdf:resource="http://purl.org/dc/dcmitype/StillImage" />
        <dc:title></dc:title>
      </cc:Work>
    </rdf:RDF>
  </metadata>
  <g
     inkscape:label="Layer 1"
     inkscape:groupmode="layer"
     id="layer1"
     transform="translate(0,-290.64998)">
    <path
       id="path4518"
       d="m 2.5013406,295.5513 c 0,0.13701 -0.1112058,0.24821 -0.2482194,0.24821 -0.1370136,0 -0.2482099,-0.1112 -0.2482099,-0.24821 v -2.48214 c 0,-0.13701 0.1111963,-0.24821 0.2482099,-0.24821 0.1370136,0 0.2482194,0.1112 0.2482194,0.24821 z m 0.9928492,0 c 0,0.13701 -0.1111964,0.24821 -0.24821,0.24821 -0.1370136,0 -0.2482193,-0.1112 -0.2482193,-0.24821 v -2.48214 c 0,-0.13701 0.1112057,-0.24821 0.2482193,-0.24821 0.1370136,0 0.24821,0.1112 0.24821,0.24821 z m 0.9928492,0 c 0,0.13701 -0.1111964,0.24821 -0.24821,0.24821 -0.1370136,0 -0.2482099,-0.1112 -0.2482099,-0.24821 v -2.48214 c 0,-0.13701 0.1111963,-0.24821 0.2482099,-0.24821 0.1370136,0 0.24821,0.1112 0.24821,0.24821 z m 1.2410685,-4.21962 v 0.49642 H 0.76384276 v -0.49642 H 2.1813919 c 0.2233871,0 0.4048305,-0.27279 0.4048305,-0.49643 h 1.3192521 c 0,0.22364 0.1811995,0.49643 0.4048399,0.49643 z m -0.7446392,0.99284 v 3.9379 l -0.00563,0.0204 -0.00751,0.007 -0.027581,0.008 c -0.00375,0 -0.00751,0 -0.011351,-10e-6 -1.1196279,-6.2e-4 -2.2392651,-9.4e-4 -3.3589024,-0.002 l -0.036399,-0.0144 -0.017074,-0.012 -0.010788,-0.0179 v -0.036 -3.89107 H 1.0118182 l -0.0548805,4.35277 0.0159482,0.0601 0.0241099,0.0419 0.0369622,0.0264 0.061354,0.009 4.2779958,-0.0221 0.039777,-0.01 0.036587,-0.0227 0.024298,-0.0336 0.00563,-0.0436 v -4.35868 z"
       inkscape:connector-curvature="0"
       style="stroke-width:0.24821307"
       sodipodi:nodetypes="sssssssssssssssssssssccccsccsccccccsccccccccccccccccccc" />
  </g>
</svg>
