<svg width="38" height="38" viewBox="0 0 38 38" xmlns="http://www.w3.org/2000/svg"><title>EA4624E8-9DE0-41ED-8AFF-E51597CCD1DB</title><path d="M27.94 8.086h-3.755a1.865 1.865 0 0 0-1.858-1.881h-5.654c-1.05 0-1.858.859-1.858 1.881H11.06c-1.05 0-1.858.86-1.858 1.882v1.882c0 1.064.848 1.882 1.858 1.882v17.1c0 1.063.848 1.882 1.857 1.882h13.125c1.05 0 1.858-.86 1.858-1.882V13.814c1.05 0 1.858-.86 1.858-1.882V10.05c.04-1.105-.808-1.964-1.818-1.964zm-1.857 22.828H12.958v-17.1h1.857V28.99h1.858V13.814h1.858V28.99h1.857V13.814h1.939V28.99h1.858V13.814h1.857v17.1h.04zM27.94 11.89H11.06v-1.882h16.88v1.882z" fill="#1C1C1B" fill-rule="evenodd"/></svg>