<?xml version="1.0" ?><svg id="Layer_1" style="enable-background:new 0 0 512 512;" version="1.1" viewBox="0 0 512 512" xml:space="preserve" xmlns="http://www.w3.org/2000/svg" xmlns:xlink="http://www.w3.org/1999/xlink"><g><g><polygon id="XMLID_3_" points="276,354.3 185.3,239.6 94.6,354.3 141.6,354.3 141.6,490.4 229,490.4 229,354.3   "/><polygon id="XMLID_2_" points="370.4,375.6 370.4,239.6 283,239.6 283,375.6 236,375.6 326.7,490.4 417.4,375.6   "/></g><path d="M432.9,183.1c0-0.3,0-0.7,0-1c0-39.9-32.3-72.2-72.2-72.2c-5,0-9.9,0.5-14.6,1.5   c-7.9-50.8-51.8-89.7-104.8-89.7c-49,0-90.3,33.3-102.4,78.5c-1.2-0.1-2.4-0.1-3.6-0.1c-39.9,0-72.2,32.3-72.2,72.2   c0,5,0.5,9.8,1.4,14.5C30.5,198.4,6,230.6,6,268.5c0,33.4,18.9,66.4,46.6,81.7c5.7,3.1,12,4.8,18.5,4.8h10.3l103.9-131.6l87.7,111   V229.6h107.4V355h37.4c47.8,0,88.4-39.1,88.2-86.8C505.8,225.1,474.2,189.5,432.9,183.1z" id="XMLID_1_"/></g></svg>