<svg xmlns="http://www.w3.org/2000/svg" width="23" height="22" viewBox="0 0 23 22">
    <path fill="#FFF" fill-rule="evenodd" d="M11.444 8.333c-1.422 0-2.575 1.095-2.575 2.445 0 1.35 1.153 2.444 2.575 2.444 1.423 0 2.576-1.094 2.576-2.444 0-1.35-1.153-2.445-2.576-2.445zm0 6.519c-2.37 0-4.292-1.824-4.292-4.074s1.922-4.074 4.292-4.074c2.371 0 4.293 1.824 4.293 4.074s-1.922 4.074-4.293 4.074zm0-10.185C7.152 4.667 3.485 7.2 2 10.777c1.485 3.578 5.152 6.112 9.444 6.112 4.293 0 7.96-2.534 9.445-6.111-1.485-3.577-5.152-6.111-9.445-6.111z"/>
</svg>
