<?xml version="1.0" encoding="UTF-8" standalone="no"?>
<!-- Created with Inkscape (http://www.inkscape.org/) -->

<svg
   xmlns:dc="http://purl.org/dc/elements/1.1/"
   xmlns:cc="http://creativecommons.org/ns#"
   xmlns:rdf="http://www.w3.org/1999/02/22-rdf-syntax-ns#"
   xmlns:svg="http://www.w3.org/2000/svg"
   xmlns="http://www.w3.org/2000/svg"
   xmlns:sodipodi="http://sodipodi.sourceforge.net/DTD/sodipodi-0.dtd"
   xmlns:inkscape="http://www.inkscape.org/namespaces/inkscape"
   width="24"
   height="24"
   viewBox="0 0 6.3499999 6.3500002"
   version="1.1"
   id="svg1818"
   inkscape:version="0.92.3 (2405546, 2018-03-11)"
   sodipodi:docname="selector_fechas.svg">
  <defs
     id="defs1812" />
  <sodipodi:namedview
     id="base"
     pagecolor="#ffffff"
     bordercolor="#666666"
     borderopacity="1.0"
     inkscape:pageopacity="0.0"
     inkscape:pageshadow="2"
     inkscape:zoom="11.2"
     inkscape:cx="-2.8615477"
     inkscape:cy="15.400565"
     inkscape:document-units="mm"
     inkscape:current-layer="layer1"
     showgrid="false"
     units="px"
     inkscape:window-width="1920"
     inkscape:window-height="1001"
     inkscape:window-x="-9"
     inkscape:window-y="-9"
     inkscape:window-maximized="1" />
  <metadata
     id="metadata1815">
    <rdf:RDF>
      <cc:Work
         rdf:about="">
        <dc:format>image/svg+xml</dc:format>
        <dc:type
           rdf:resource="http://purl.org/dc/dcmitype/StillImage" />
        <dc:title></dc:title>
      </cc:Work>
    </rdf:RDF>
  </metadata>
  <g
     inkscape:label="Layer 1"
     inkscape:groupmode="layer"
     id="layer1"
     transform="translate(0,-290.64998)">
    <path
       id="path1549"
       d="m 2.2851202,294.14942 h -0.4508 c -0.0744,0 -0.13524,-0.0609 -0.13524,-0.13524 v -0.45079 c 0,-0.0744 0.0609,-0.13525 0.13524,-0.13525 h 0.4508 c 0.0744,0 0.13524,0.0608 0.13524,0.13525 v 0.45079 c 0,0.0744 -0.0609,0.13524 -0.13524,0.13524 z m 1.21715,-0.13524 v -0.45079 c 0,-0.0744 -0.0609,-0.13525 -0.13524,-0.13525 h -0.4508 c -0.0744,0 -0.13523,0.0608 -0.13523,0.13525 v 0.45079 c 0,0.0744 0.0608,0.13524 0.13523,0.13524 h 0.4508 c 0.0744,0 0.13524,-0.0609 0.13524,-0.13524 z m 1.08192,0 v -0.45079 c 0,-0.0744 -0.0609,-0.13525 -0.13524,-0.13525 h -0.4508 c -0.0744,0 -0.13524,0.0608 -0.13524,0.13525 v 0.45079 c 0,0.0744 0.0609,0.13524 0.13524,0.13524 h 0.4508 c 0.0744,0 0.13524,-0.0609 0.13524,-0.13524 z m -1.08192,1.08192 v -0.4508 c 0,-0.0744 -0.0609,-0.13524 -0.13524,-0.13524 h -0.4508 c -0.0744,0 -0.13523,0.0609 -0.13523,0.13524 v 0.4508 c 0,0.0744 0.0608,0.13524 0.13523,0.13524 h 0.4508 c 0.0744,0 0.13524,-0.0609 0.13524,-0.13524 z m -1.08191,0 v -0.4508 c 0,-0.0744 -0.0609,-0.13524 -0.13524,-0.13524 h -0.4508 c -0.0744,0 -0.13524,0.0609 -0.13524,0.13524 v 0.4508 c 0,0.0744 0.0609,0.13524 0.13524,0.13524 h 0.4508 c 0.0744,0 0.13524,-0.0609 0.13524,-0.13524 z m 2.16383,0 v -0.4508 c 0,-0.0744 -0.0609,-0.13524 -0.13524,-0.13524 h -0.4508 c -0.0744,0 -0.13524,0.0609 -0.13524,0.13524 v 0.4508 c 0,0.0744 0.0609,0.13524 0.13524,0.13524 h 0.4508 c 0.0744,0 0.13524,-0.0609 0.13524,-0.13524 z m 1.08191,-2.93019 v 3.96703 c 0,0.29865 -0.2423,0.54095 -0.54096,0.54095 h -3.96702 c -0.29865002,0 -0.54095002,-0.2423 -0.54095002,-0.54095 v -3.96703 c 0,-0.29865 0.2423,-0.54096 0.54095002,-0.54096 h 0.54096 v -0.58603 c 0,-0.0744 0.0609,-0.13524 0.13524,-0.13524 h 0.4508 c 0.0744,0 0.13524,0.0609 0.13524,0.13524 v 0.58603 h 1.44255 v -0.58603 c 0,-0.0744 0.0609,-0.13524 0.13524,-0.13524 h 0.4508 c 0.0744,0 0.13524,0.0609 0.13524,0.13524 v 0.58603 h 0.54095 c 0.29866,0 0.54096,0.24231 0.54096,0.54096 z m -0.54096,3.8994 v -3.35844 h -3.96702 v 3.35844 c 0,0.0372 0.0304,0.0676 0.0676,0.0676 h 3.83178 c 0.0372,0 0.0676,-0.0304 0.0676,-0.0676 z"
       inkscape:connector-curvature="0"
       style="stroke-width:0.01126994" />
  </g>
</svg>
