<?xml version="1.0" encoding="UTF-8" standalone="no"?>
<svg
   xmlns:dc="http://purl.org/dc/elements/1.1/"
   xmlns:cc="http://creativecommons.org/ns#"
   xmlns:rdf="http://www.w3.org/1999/02/22-rdf-syntax-ns#"
   xmlns:svg="http://www.w3.org/2000/svg"
   xmlns="http://www.w3.org/2000/svg"
   xmlns:sodipodi="http://sodipodi.sourceforge.net/DTD/sodipodi-0.dtd"
   xmlns:inkscape="http://www.inkscape.org/namespaces/inkscape"
   width="24"
   height="24"
   viewBox="0 0 24 24"
   version="1.1"
   id="svg917"
   sodipodi:docname="image-gallery-placeholder.svg"
   inkscape:version="0.92.3 (2405546, 2018-03-11)">
  <metadata
     id="metadata923">
    <rdf:RDF>
      <cc:Work
         rdf:about="">
        <dc:format>image/svg+xml</dc:format>
        <dc:type
           rdf:resource="http://purl.org/dc/dcmitype/StillImage" />
      </cc:Work>
    </rdf:RDF>
  </metadata>
  <defs
     id="defs921" />
  <sodipodi:namedview
     pagecolor="#ffffff"
     bordercolor="#666666"
     borderopacity="1"
     objecttolerance="10"
     gridtolerance="10"
     guidetolerance="10"
     inkscape:pageopacity="0"
     inkscape:pageshadow="2"
     inkscape:window-width="1920"
     inkscape:window-height="1001"
     id="namedview919"
     showgrid="false"
     inkscape:zoom="8"
     inkscape:cx="-24.644356"
     inkscape:cy="1.6601114"
     inkscape:window-x="-9"
     inkscape:window-y="-9"
     inkscape:window-maximized="1"
     inkscape:current-layer="svg917" />
  <path
     d="M 11.362,2 C 15.518,2 14,8 14,8 c 0,0 6,-1.65 6,2.457 V 22 H 4 V 2 Z M 12.189,0 H 2.3085938 L 2.1523437,0.01171875 2.046875,0.046875 2.015625,0.140625 2,0.25390625 V 23.714844 l 0.015625,0.171875 0.046875,0.07813 0.097656,0.02734 L 2.2734375,24 H 21.710937 l 0.125,-0.0078 0.113282,-0.02734 0.03906,-0.07422 L 22,23.773437 V 9.614 C 22,7.223 15.352,0 12.189,0 Z M 7,12.5 C 7,11.672 7.672,11 8.501,11 9.328,11 10,11.672 10,12.5 10,13.328 9.328,14 8.501,14 7.672,14 7,13.328 7,12.5 Z M 13.5,13 11.407,15.968 10.097,15 7,19 h 10 z"
     id="path915"
     inkscape:connector-curvature="0"
     sodipodi:nodetypes="scscccsscccccccccccccccssssssscccccc" />
</svg>
