<?xml version="1.0" encoding="UTF-8" standalone="no"?>
<!-- Created with Inkscape (http://www.inkscape.org/) -->

<svg
   xmlns:dc="http://purl.org/dc/elements/1.1/"
   xmlns:cc="http://creativecommons.org/ns#"
   xmlns:rdf="http://www.w3.org/1999/02/22-rdf-syntax-ns#"
   xmlns:svg="http://www.w3.org/2000/svg"
   xmlns="http://www.w3.org/2000/svg"
   xmlns:sodipodi="http://sodipodi.sourceforge.net/DTD/sodipodi-0.dtd"
   xmlns:inkscape="http://www.inkscape.org/namespaces/inkscape"
   width="24"
   height="24"
   viewBox="0 0 6.3499998 6.3500002"
   version="1.1"
   id="svg8"
   inkscape:version="0.92.3 (2405546, 2018-03-11)"
   sodipodi:docname="incidencia.svg">
  <defs
     id="defs2" />
  <sodipodi:namedview
     id="base"
     pagecolor="#ffffff"
     bordercolor="#666666"
     borderopacity="1.0"
     inkscape:pageopacity="0.0"
     inkscape:pageshadow="2"
     inkscape:zoom="15.839192"
     inkscape:cx="9.422803"
     inkscape:cy="10.626736"
     inkscape:document-units="mm"
     inkscape:current-layer="layer1"
     showgrid="false"
     inkscape:window-width="1920"
     inkscape:window-height="1001"
     inkscape:window-x="-9"
     inkscape:window-y="-9"
     inkscape:window-maximized="1"
     units="px" />
  <metadata
     id="metadata5">
    <rdf:RDF>
      <cc:Work
         rdf:about="">
        <dc:format>image/svg+xml</dc:format>
        <dc:type
           rdf:resource="http://purl.org/dc/dcmitype/StillImage" />
        <dc:title></dc:title>
      </cc:Work>
    </rdf:RDF>
  </metadata>
  <g
     inkscape:label="Layer 1"
     inkscape:groupmode="layer"
     id="layer1"
     transform="translate(0,-290.64998)">
    <g
       id="g885"
       transform="translate(-11.830128,147.95223)">
      <path
         inkscape:connector-curvature="0"
         id="rect3774-8"
         d="m 12.757376,143.40081 c -0.146579,0 -0.264583,0.11801 -0.264583,0.26459 v 4.39559 c 0,0.14658 0.118004,0.26459 0.264583,0.26459 h 0.01809 v -4.3894 c 0,-0.14658 0.118004,-0.26458 0.264583,-0.26458 h 4.436422 v -0.006 c 0,-0.14658 -0.118004,-0.26459 -0.264583,-0.26459 z"
         style="fill:#ffffff;stroke-width:0.26458332" />
      <path
         inkscape:connector-curvature="0"
         id="rect3774-8-6"
         d="m 12.345156,143.0236 c -0.146579,0 -0.264583,0.11801 -0.264583,0.26459 v 4.39559 c 0,0.14658 0.118004,0.26459 0.264583,0.26459 h 0.01809 v -4.3894 c 0,-0.14658 0.118004,-0.26458 0.264584,-0.26458 h 4.436421 v -0.006 c 0,-0.14658 -0.118004,-0.26459 -0.264583,-0.26459 z"
         style="fill:#ffffff;stroke-width:0.26458332" />
      <path
         inkscape:connector-curvature="0"
         id="rect3774-2"
         d="m 13.306799,143.91298 c -0.139677,0 -0.251664,0.11228 -0.251664,0.25166 v 4.17959 c 0,0.13938 0.111987,0.25166 0.251664,0.25166 h 4.245219 c 0.139677,0 0.251665,-0.11228 0.251665,-0.25166 v -4.17959 c 0,-0.13938 -0.111988,-0.25166 -0.251665,-0.25166 z m 1.629358,0.40617 h 0.986503 v 0.72657 h -0.986503 z m 0,1.08469 h 0.986503 v 2.78639 h -0.986503 z"
         style="fill:#ffffff;stroke:#ffffff;stroke-width:0.252;stroke-linejoin:round;stroke-miterlimit:4;stroke-dasharray:none" />
    </g>
  </g>
</svg>
