<svg xmlns="http://www.w3.org/2000/svg" width="23" height="24" viewBox="0 0 23 24">
    <path fill="#000" fill-rule="nonzero" d="M4.113 6.064l-.99.983L4.26 8.186c-.333.2-.666.425-.983.665l1.394 1.858c.41-.31.836-.58 1.285-.828l1.726 1.727a8.492 8.492 0 0 0-1.618.96l1.394 1.858a6.88 6.88 0 0 1 2.013-1.03l1.974 1.959a4.784 4.784 0 0 0-2.594.929L11.64 20l1.904-2.532L16.083 20l.975-.991L4.113 6.064zm7.526 0c-1.665 0-3.252.294-4.723.829l1.85 1.858c.937-.24 1.882-.364 2.873-.364 2.616 0 5.032.86 6.967 2.322L20 8.851a13.863 13.863 0 0 0-8.361-2.787zm0 4.645c-.295 0-.581 0-.868.04l2.47 2.477a6.855 6.855 0 0 1 2.578 1.2l1.394-1.858a9.225 9.225 0 0 0-5.574-1.859z"/>
</svg>
