<?xml version="1.0" encoding="UTF-8" standalone="no"?>
<!-- Created with Inkscape (http://www.inkscape.org/) -->

<svg
   xmlns:dc="http://purl.org/dc/elements/1.1/"
   xmlns:cc="http://creativecommons.org/ns#"
   xmlns:rdf="http://www.w3.org/1999/02/22-rdf-syntax-ns#"
   xmlns:svg="http://www.w3.org/2000/svg"
   xmlns="http://www.w3.org/2000/svg"
   xmlns:sodipodi="http://sodipodi.sourceforge.net/DTD/sodipodi-0.dtd"
   xmlns:inkscape="http://www.inkscape.org/namespaces/inkscape"
   width="24"
   height="24"
   viewBox="0 0 6.3499999 6.3500002"
   version="1.1"
   id="svg8"
   inkscape:version="0.92.4 (5da689c313, 2019-01-14)"
   sodipodi:docname="icon_polygon_selection.svg">
  <defs
     id="defs2" />
  <sodipodi:namedview
     id="base"
     pagecolor="#ffffff"
     bordercolor="#666666"
     borderopacity="1.0"
     inkscape:pageopacity="0.0"
     inkscape:pageshadow="2"
     inkscape:zoom="7.9195959"
     inkscape:cx="27.443383"
     inkscape:cy="-1.4440563"
     inkscape:document-units="mm"
     inkscape:current-layer="layer1"
     showgrid="false"
     units="px"
     inkscape:window-width="1920"
     inkscape:window-height="1001"
     inkscape:window-x="-9"
     inkscape:window-y="-9"
     inkscape:window-maximized="1" />
  <metadata
     id="metadata5">
    <rdf:RDF>
      <cc:Work
         rdf:about="">
        <dc:format>image/svg+xml</dc:format>
        <dc:type
           rdf:resource="http://purl.org/dc/dcmitype/StillImage" />
        <dc:title></dc:title>
      </cc:Work>
    </rdf:RDF>
  </metadata>
  <g
     inkscape:label="Layer 1"
     inkscape:groupmode="layer"
     id="layer1"
     transform="translate(0,-290.64998)">
    <path
       style="fill-rule:evenodd;stroke-width:0.26458332"
       d="m 1.6293483,292.18982 v 2.11666 h 0.52916 v 1.05834 h 2.64584 v -2.11667 h -0.79375 v -1.05833 z m 0.52916,0.52916 h 1.32292 v 1.05834 h -1.32292 z m 1.85209,1.05834 h 0.26458 v 1.05833 h -1.5875 v -0.52917 h 1.32292 z"
       id="path3749"
       inkscape:connector-curvature="0" />
    <path
       id="path3791"
       d="m 0.57101328,291.66065 v 0.79375 H 1.1001833 v -0.79375 H 0.57101328 m 1.32292002,0 h -0.79375 c 0,0 0,0 0,0 H 0.57101328 c 0,-0.29368 0.23813,-0.52916 0.52917002,-0.52916 h 0.79375 v 0.52916 m 3.96875,0 v 0.79375 h -0.52917 v -0.79375 h 0.52917 m -1.32292,0 h 0.79375 c 0,0 0,0 0,0 h 0.52917 c 0,-0.29368 -0.23813,-0.52916 -0.52917,-0.52916 h -0.79375 v 0.52916 m 1.32292,4.23334 v -0.79375 h -0.52917 v 0.79375 h 0.52917 m -1.32292,0 h 0.79375 c 0,0 0,0 0,0 h 0.52917 c 0,0.29368 -0.23813,0.52916 -0.52917,0.52916 h -0.79375 v -0.52916 m -3.96875002,0 v -0.79375 H 1.1001833 v 0.79375 H 0.57101328 m 1.32292002,0 h -0.79375 c 0,0 0,0 0,0 H 0.57101328 c 0,0.29368 0.23813,0.52916 0.52917002,0.52916 h 0.79375 v -0.52916 m 0.79375,-4.7625 h 1.05833 v 0.52916 h -1.05833 v -0.52916 m 0,4.7625 h 1.05833 v 0.52916 h -1.05833 v -0.52916 m 2.64583,-2.64584 h 0.52917 v 1.05834 h -0.52917 v -1.05834 m -4.76250002,0 H 1.1001833 v 1.05834 H 0.57101328 Z"
       inkscape:connector-curvature="0"
       style="stroke-width:0.26458332" />
  </g>
</svg>
