<?xml version="1.0" encoding="UTF-8"?><!DOCTYPE svg PUBLIC "-//W3C//DTD SVG 1.1//EN" "http://www.w3.org/Graphics/SVG/1.1/DTD/svg11.dtd"><svg xmlns="http://www.w3.org/2000/svg" xmlns:xlink="http://www.w3.org/1999/xlink" version="1.1" width="24" height="24" viewBox="0 0 24 24"><path d="M2,4V7H4V4H2M7,4H4C4,4 4,4 4,4H2C2,2.89 2.9,2 4,2H7V4M22,4V7H20V4H22M17,4H20C20,4 20,4 20,4H22C22,2.89 21.1,2 20,2H17V4M22,20V17H20V20H22M17,20H20C20,20 20,20 20,20H22C22,21.11 21.1,22 20,22H17V20M2,20V17H4V20H2M7,20H4C4,20 4,20 4,20H2C2,21.11 2.9,22 4,22H7V20M10,2H14V4H10V2M10,20H14V22H10V20M20,10H22V14H20V10M2,10H4V14H2V10Z" /></svg>