<?xml version="1.0" encoding="utf-8"?>
<!-- Generator: Adobe Illustrator 16.0.0, SVG Export Plug-In . SVG Version: 6.00 Build 0)  -->
<!DOCTYPE svg PUBLIC "-//W3C//DTD SVG 1.1//EN" "http://www.w3.org/Graphics/SVG/1.1/DTD/svg11.dtd">
<svg version="1.1" id="Capa_1" xmlns="http://www.w3.org/2000/svg" xmlns:xlink="http://www.w3.org/1999/xlink" x="0px" y="0px"
	 width="24px" height="24px" viewBox="0 0 24 24" enable-background="new 0 0 24 24" xml:space="preserve">
<path d="M2,4v3h2V4H2 M7,4H4l0,0H2c0-1.11,0.9-2,2-2h3V4 M22,4v3h-2V4H22 M17,4h3l0,0h2c0-1.11-0.9-2-2-2h-3V4 M22,20v-3h-2v3H22
	 M17,20h3l0,0h2c0,1.109-0.9,2-2,2h-3V20 M2,20v-3h2v3H2 M7,20H4l0,0H2c0,1.109,0.9,2,2,2h3V20 M10,2h4v2h-4V2 M10,20h4v2h-4V20
	 M20,10h2v4h-2V10 M2,10h2v4H2V10z"/>
<path d="M17,13h-4v4h-2v-4H7v-2h4V7h2v4h4V13z"/>
</svg>
