<?xml version="1.0" encoding="utf-8"?>
<!-- Generator: Adobe Illustrator 16.0.0, SVG Export Plug-In . SVG Version: 6.00 Build 0)  -->
<!DOCTYPE svg PUBLIC "-//W3C//DTD SVG 1.1//EN" "http://www.w3.org/Graphics/SVG/1.1/DTD/svg11.dtd">
<svg version="1.1" id="Capa_1" xmlns="http://www.w3.org/2000/svg" xmlns:xlink="http://www.w3.org/1999/xlink" x="0px" y="0px"
	 width="24px" height="24px" viewBox="0 0 24 24" enable-background="new 0 0 24 24" xml:space="preserve">
<g>
	<path fill-rule="evenodd" clip-rule="evenodd" d="M2.616,5.632c0.369,0.37,1.984,1.979,2.44,2.45
		c0.125,0.13,0.248,0.163,0.416,0.122C6.106,8.049,6.59,7.664,7.013,7.192c0.32-0.357,0.583-0.751,0.679-1.237
		C7.722,5.8,7.687,5.695,7.573,5.583C6.817,4.837,5.201,3.21,5.127,3.131c0.527-0.198,1.051-0.257,1.582-0.217
		c2.294,0.173,3.923,2.022,3.809,4.333c-0.034,0.693,0.191,1.26,0.68,1.748c2.926,2.918,5.847,5.84,8.767,8.763
		c0.951,0.951,0.767,2.452-0.375,3.096c-0.746,0.421-1.69,0.288-2.309-0.33c-2.895-2.894-5.795-5.781-8.677-8.688
		c-0.575-0.58-1.215-0.838-2.03-0.804c-2.741,0.114-4.792-2.52-4.042-5.158C2.552,5.807,2.578,5.743,2.616,5.632z M17.779,19.057
		c0.001,0.428,0.346,0.779,0.771,0.785c0.426,0.007,0.794-0.359,0.793-0.79c-0.001-0.428-0.373-0.794-0.798-0.786
		C18.121,18.274,17.777,18.629,17.779,19.057z"/>
	<path fill-rule="evenodd" clip-rule="evenodd" d="M14.967,10.872l-0.799-0.794c0,0,2.959-2.967,4.356-4.365
		c0.056-0.055,0.114-0.108,0.161-0.17c0.106-0.146,0.099-0.3-0.027-0.425c-0.133-0.13-0.292-0.141-0.446-0.026
		c-0.05,0.037-0.09,0.087-0.134,0.131c-1.403,1.403-4.342,4.399-4.342,4.399l-0.814-0.817l5.426-5.425l3.275,3.273l-5.419,5.418
		l-0.813-0.82c0,0,2.982-2.915,4.385-4.318c0.05-0.05,0.104-0.097,0.146-0.153c0.107-0.148,0.092-0.297-0.036-0.423
		c-0.126-0.125-0.276-0.139-0.426-0.037c-0.057,0.04-0.103,0.095-0.152,0.145C17.903,7.868,14.967,10.872,14.967,10.872z"/>
	<path fill-rule="evenodd" clip-rule="evenodd" d="M8.291,13.39l0.811,0.785c0,0-2.091,2.102-3.046,3.058
		c-0.066,0.066-0.134,0.133-0.188,0.208c-0.106,0.15-0.083,0.3,0.042,0.425c0.128,0.125,0.279,0.134,0.425,0.026
		c0.062-0.045,0.115-0.104,0.17-0.16c0.956-0.955,3.003-3.051,3.003-3.051l0.784,0.792c0,0-2.062,2.067-3.028,3.034
		c-0.05,0.05-0.104,0.096-0.146,0.151c-0.116,0.151-0.115,0.311,0.019,0.444s0.292,0.137,0.444,0.021
		c0.055-0.043,0.102-0.098,0.151-0.146c0.961-0.961,3.021-3.088,3.021-3.088l0.871,0.893c0,0-2.389,2.351-3.4,3.35
		c-0.092,0.091-0.232,0.16-0.36,0.184c-1.226,0.236-3.963,0.729-3.963,0.729s0.529-2.686,0.785-3.908
		c0.021-0.102,0.062-0.216,0.133-0.287C5.946,15.711,8.291,13.39,8.291,13.39z"/>
</g>
</svg>
